# Blender v2.79 (sub 0) OBJ File: 'oldDesk.blend'
# www.blender.org
mtllib oldDesk.mtl
o desk80s_Cube.005
v 0.465994 0.795883 -0.861766
v 0.465994 0.739599 -0.861766
v 0.465994 0.795882 0.861766
v 0.465994 0.739599 0.861766
v -0.465994 0.795883 -0.861766
v -0.465994 0.739599 -0.861766
v -0.465994 0.795882 0.861766
v -0.465994 0.739599 0.861766
v 0.465994 0.795882 -0.770100
v 0.465994 0.795883 0.770101
v 0.465994 0.739599 0.770100
v 0.465994 0.739599 -0.770101
v -0.465994 0.795883 0.770101
v -0.465994 0.795883 -0.770100
v -0.465994 0.739599 -0.770101
v -0.465994 0.739599 0.770100
v 0.465994 0.039599 0.861766
v -0.465994 0.039599 0.861766
v 0.465994 0.039599 0.770100
v -0.465994 0.039599 0.770100
v 0.465994 0.039599 -0.861766
v -0.465994 0.039599 -0.861766
v 0.465994 0.039599 -0.770101
v -0.465994 0.039599 -0.770101
v -0.446904 0.795882 0.861766
v -0.446904 0.739599 0.861766
v -0.446904 0.795883 -0.861766
v -0.446904 0.739599 -0.861766
v -0.446904 0.795883 -0.770100
v -0.446904 0.795883 0.770101
v -0.446904 0.739599 -0.770101
v -0.446904 0.739599 0.770100
v -0.446904 0.039599 0.861766
v -0.446904 0.039599 0.770100
v -0.446904 0.039599 -0.861766
v -0.446904 0.039599 -0.770101
v -0.380522 0.739599 0.861766
v -0.380522 0.795883 -0.861766
v -0.380522 0.795883 -0.770100
v -0.380522 0.795883 0.770101
v -0.380522 0.039599 0.861766
v -0.380522 0.795882 0.861766
v -0.380522 0.739599 -0.861766
v -0.380522 0.739599 -0.770101
v 0.465994 0.739599 -0.250051
v -0.380522 0.039599 0.770100
v -0.380522 0.039599 -0.861766
v -0.380522 0.039599 -0.770101
v 0.400487 0.739599 0.861766
v 0.400487 0.795883 -0.861766
v 0.400487 0.795882 -0.770100
v 0.400487 0.795883 0.770101
v 0.400487 0.039599 0.861766
v 0.400487 0.795882 0.861766
v 0.400487 0.739599 -0.861766
v 0.400487 0.739599 -0.770101
v 0.400487 0.739599 0.770100
v 0.400487 0.039599 0.770100
v 0.400487 0.039599 -0.861766
v 0.400487 0.039599 -0.770101
v -0.465994 0.082227 0.861766
v 0.465994 0.795882 0.270000
v 0.465994 0.739599 0.270000
v -0.465994 0.795883 0.270000
v -0.465994 0.739599 0.270000
v -0.446904 0.739599 0.270000
v -0.446904 0.795883 0.270000
v -0.380522 0.795883 0.270000
v -0.380522 0.739599 0.270000
v 0.400487 0.795882 0.270000
v 0.400487 0.739599 0.270000
v -0.465994 0.795883 -0.250050
v 0.465994 0.795882 -0.250050
v -0.465994 0.739599 -0.250051
v -0.446904 0.739599 -0.250051
v -0.446904 0.795883 -0.250050
v -0.380522 0.795883 -0.250050
v -0.380522 0.739599 -0.250051
v 0.400487 0.795882 -0.250050
v 0.400487 0.739599 -0.250051
v 0.465994 0.082227 0.861766
v -0.465994 0.082227 0.770100
v 0.465994 0.082227 0.770100
v 0.465994 0.082227 -0.770101
v 0.465994 0.082227 -0.861766
v -0.465994 0.082227 -0.770101
v -0.465994 0.082227 -0.861766
v -0.446904 0.082227 -0.861766
v -0.446904 0.082227 -0.770101
v -0.446904 0.082227 0.770100
v -0.446904 0.082227 0.861766
v -0.380522 0.082227 0.861766
v -0.380522 0.082227 -0.770101
v -0.380522 0.082227 -0.861766
v 0.400487 0.082227 0.861766
v 0.400487 0.082227 -0.861766
v 0.400487 0.082227 0.770100
v -0.446904 0.082227 0.269999
v -0.380522 0.082227 0.269999
v -0.446904 0.082227 -0.250051
v -0.380522 0.082227 -0.250051
v -0.380522 0.082227 0.770000
v 0.400487 0.082227 0.270100
v 0.465994 0.144278 0.861766
v 0.465994 0.144278 -0.861766
v -0.465994 0.144278 -0.861766
v -0.465994 0.144278 0.770100
v -0.380522 0.144278 0.269999
v -0.465994 0.144278 0.861766
v -0.380522 0.144278 -0.250051
v 0.465994 0.144279 0.770100
v 0.465994 0.144278 -0.770101
v -0.465994 0.144278 -0.770101
v -0.446904 0.144278 -0.861766
v -0.446904 0.144278 -0.770101
v -0.446904 0.144278 0.770100
v -0.446904 0.144278 0.861766
v -0.380522 0.144278 0.861766
v -0.380522 0.144278 -0.770101
v -0.380522 0.144278 -0.861766
v 0.400487 0.144278 0.861766
v 0.400487 0.144278 -0.861766
v 0.400487 0.144279 0.770100
v -0.446904 0.144278 0.269999
v -0.446904 0.144278 -0.250051
v 0.400487 0.144278 0.270091
v 0.465994 0.739599 -0.305142
v -0.465994 0.795883 -0.305142
v 0.465994 0.795882 -0.305141
v -0.465994 0.739599 -0.305142
v -0.446904 0.739599 -0.305142
v -0.446904 0.795883 -0.305142
v -0.380522 0.795883 -0.305142
v -0.380522 0.739599 -0.305142
v 0.400487 0.795882 -0.305141
v -0.446904 0.082227 -0.305142
v -0.380522 0.082227 -0.305142
v -0.446904 0.144278 -0.305142
v -0.380522 0.144278 -0.305142
v 0.465994 0.407806 0.861766
v 0.465994 0.461727 0.861766
v 0.465994 0.407806 -0.861766
v 0.465994 0.461727 -0.861766
v -0.465994 0.407806 -0.861766
v -0.465994 0.461727 -0.861766
v -0.380522 0.407806 0.270000
v -0.380522 0.461727 0.270000
v -0.380522 0.407806 -0.250051
v -0.380522 0.461727 -0.250051
v -0.465994 0.461727 0.770100
v -0.465994 0.407806 0.770100
v -0.465994 0.461727 0.861766
v -0.465994 0.407806 0.861766
v 0.465994 0.461727 0.770100
v 0.465994 0.407806 0.770100
v 0.465994 0.461727 -0.770101
v 0.465994 0.407806 -0.770101
v -0.465994 0.461727 -0.770101
v -0.465994 0.407806 -0.770101
v -0.446904 0.461727 -0.861766
v -0.446904 0.407806 -0.861766
v -0.446904 0.461727 -0.770101
v -0.446904 0.407806 -0.770101
v -0.446904 0.461727 0.770100
v -0.446904 0.407806 0.770100
v -0.446904 0.461727 0.861766
v -0.446904 0.407806 0.861766
v -0.380522 0.461727 0.861766
v -0.380522 0.407806 0.861766
v -0.380522 0.461727 -0.770101
v -0.380522 0.407806 -0.770101
v -0.380522 0.461727 -0.861766
v -0.380522 0.407806 -0.861766
v 0.400487 0.461727 0.861766
v 0.400487 0.407806 0.861766
v 0.400487 0.461727 -0.861766
v 0.400487 0.407806 -0.861766
v 0.400487 0.461727 0.770100
v 0.400487 0.407806 0.770100
v -0.446904 0.461727 0.270000
v -0.446904 0.407806 0.270000
v -0.446904 0.461727 -0.250051
v -0.446904 0.407806 -0.250051
v 0.400487 0.461727 0.270031
v 0.400487 0.407806 0.270061
v -0.446904 0.461727 -0.305142
v -0.446904 0.407806 -0.305142
v -0.380522 0.407806 -0.305142
v -0.380522 0.461727 -0.305142
v 0.399478 0.739599 -0.305142
v 0.399478 0.461727 -0.250051
v 0.399478 0.144278 -0.770101
v 0.399478 0.082227 -0.770101
v 0.399478 0.082227 -0.305142
v 0.399478 0.082227 -0.250051
v 0.399478 0.144278 -0.250051
v 0.399478 0.144278 -0.305142
v 0.399478 0.461727 -0.305142
v 0.399478 0.407806 -0.250051
v 0.399478 0.461727 -0.770101
v 0.399478 0.407806 -0.770101
v 0.399478 0.407806 -0.305142
vn 0.0000 0.0000 1.0000
vn 1.0000 0.0000 0.0000
vn 0.0000 0.0000 -1.0000
vn -1.0000 0.0000 0.0000
vn 0.0000 1.0000 0.0000
vn 0.0000 -1.0000 0.0000
vn -0.9999 -0.0118 -0.0055
vn -0.0008 -0.0012 -1.0000
vn 0.0001 -0.0001 -1.0000
vn 0.0000 -0.0001 -1.0000
vn 0.0001 -0.0003 -1.0000
vn 1.0000 -0.0018 -0.0092
usemtl desk_white
s off
f 91//1 61//1 18//1 33//1
f 26//1 25//1 7//1 8//1
f 11//2 10//2 3//2 4//2
f 55//3 50//3 1//3 2//3
f 15//4 14//4 5//4 6//4
f 30//5 13//5 7//5 25//5
f 27//5 5//5 14//5 29//5
f 67//5 64//5 13//5 30//5
f 8//4 7//4 13//4 16//4
f 130//4 128//4 14//4 15//4
f 2//2 1//2 9//2 12//2
f 63//2 62//2 10//2 11//2
f 85//2 84//2 23//2 21//2
f 71//6 63//6 11//6 57//6
f 58//6 19//6 17//6 53//6
f 61//4 82//4 20//4 18//4
f 97//3 83//3 19//3 58//3
f 83//2 81//2 17//2 19//2
f 59//6 21//6 23//6 60//6
f 89//1 86//1 24//1 36//1
f 96//3 85//3 21//3 59//3
f 86//4 87//4 22//4 24//4
f 87//3 88//3 35//3 22//3
f 189//2 170//2 44//2 134//2
f 22//6 35//6 36//6 24//6
f 82//3 90//3 34//3 20//3
f 20//6 34//6 33//6 18//6
f 65//6 66//6 32//6 16//6
f 68//5 67//5 30//5 40//5
f 38//5 27//5 29//5 39//5
f 40//5 30//5 25//5 42//5
f 6//3 5//3 27//3 28//3
f 37//1 42//1 25//1 26//1
f 92//1 91//1 33//1 41//1
f 49//1 54//1 42//1 37//1
f 52//5 40//5 42//5 54//5
f 50//5 38//5 39//5 51//5
f 70//5 68//5 40//5 52//5
f 88//3 94//3 47//3 35//3
f 35//6 47//6 48//6 36//6
f 186//4 131//4 31//4 162//4
f 34//6 46//6 41//6 33//6
f 28//3 27//3 38//3 43//3
f 84//1 193//1 60//1 23//1
f 62//5 70//5 52//5 10//5
f 1//5 50//5 51//5 9//5
f 10//5 52//5 54//5 3//5
f 4//1 3//1 54//1 49//1
f 81//1 95//1 53//1 17//1
f 59//7 60//7 193//7 96//7
f 43//3 38//3 50//3 55//3
f 78//6 80//6 71//6 69//6
f 73//5 79//5 70//5 62//5
f 96//6 193//6 93//6 94//6
f 164//4 32//4 66//4 180//4
f 79//5 77//5 68//5 70//5
f 77//5 76//5 67//5 68//5
f 74//6 75//6 66//6 65//6
f 80//6 45//6 63//6 71//6
f 45//2 73//2 62//2 63//2
f 16//4 13//4 64//4 65//4
f 76//5 72//5 64//5 67//5
f 94//2 93//2 48//2 47//2
f 48//1 93//1 89//1 36//1
f 132//5 128//5 72//5 76//5
f 127//2 129//2 73//2 45//2
f 190//6 127//6 45//6 80//6
f 130//6 131//6 75//6 74//6
f 133//5 132//5 76//5 77//5
f 135//5 133//5 77//5 79//5
f 89//6 93//6 137//6 136//6
f 129//5 135//5 79//5 73//5
f 134//6 190//6 80//6 78//6
f 180//4 66//4 75//4 182//4
f 147//2 149//2 78//2 69//2
f 65//4 64//4 72//4 74//4
f 120//3 122//3 96//3 94//3
f 104//1 121//1 95//1 81//1
f 112//1 192//1 193//1 84//1
f 136//6 137//6 101//6 100//6
f 114//3 120//3 94//3 88//3
f 121//1 118//1 92//1 95//1
f 118//1 117//1 91//1 92//1
f 107//3 116//3 90//3 82//3
f 101//6 99//6 98//6 100//6
f 106//3 114//3 88//3 87//3
f 113//4 106//4 87//4 86//4
f 122//3 105//3 85//3 96//3
f 115//1 113//1 86//1 89//1
f 111//2 104//2 81//2 83//2
f 123//3 111//3 83//3 97//3
f 109//4 107//4 82//4 61//4
f 105//2 112//2 84//2 85//2
f 117//1 109//1 61//1 91//1
f 90//6 98//6 99//6 102//6
f 46//8 34//8 90//8 102//8
f 184//2 71//2 57//2 178//2
f 126//9 103//9 99//9 108//9
f 99//6 103//6 97//6 102//6
f 185//9 126//9 108//9 146//9
f 103//2 126//2 123//2 97//2
f 167//1 153//1 109//1 117//1
f 142//2 157//2 112//2 105//2
f 153//4 151//4 107//4 109//4
f 179//3 155//3 111//3 123//3
f 155//2 140//2 104//2 111//2
f 163//1 159//1 113//1 115//1
f 177//3 142//3 105//3 122//3
f 159//4 144//4 106//4 113//4
f 144//3 161//3 114//3 106//3
f 151//3 165//3 116//3 107//3
f 169//1 167//1 117//1 118//1
f 175//1 169//1 118//1 121//1
f 201//1 171//1 119//1 192//1
f 161//3 173//3 120//3 114//3
f 157//1 201//1 192//1 112//1
f 140//1 175//1 121//1 104//1
f 173//3 177//3 122//3 120//3
f 99//2 101//2 110//2 108//2
f 98//4 124//4 125//4 100//4
f 90//4 116//4 124//4 98//4
f 136//4 138//4 115//4 89//4
f 101//6 137//6 194//6 195//6
f 110//1 101//1 195//1 196//1
f 100//4 125//4 138//4 136//4
f 92//2 41//2 46//2 102//2
f 92//6 102//6 97//6 95//6
f 44//6 56//6 190//6 134//6
f 9//5 51//5 135//5 129//5
f 53//4 95//4 97//4 58//4
f 51//5 39//5 133//5 135//5
f 39//5 29//5 132//5 133//5
f 15//6 31//6 131//6 130//6
f 56//6 12//6 127//6 190//6
f 12//2 9//2 129//2 127//2
f 29//5 14//5 128//5 132//5
f 182//4 75//4 131//4 186//4
f 170//5 189//5 198//5 200//5
f 74//4 72//4 128//4 130//4
f 188//6 171//6 201//6 202//6
f 139//3 188//3 202//3 197//3
f 125//4 183//4 187//4 138//4
f 183//4 182//4 186//4 187//4
f 43//3 55//3 176//3 172//3
f 172//3 176//3 177//3 173//3
f 4//1 49//1 174//1 141//1
f 141//1 174//1 175//1 140//1
f 12//1 56//1 200//1 156//1
f 156//1 200//1 201//1 157//1
f 28//3 43//3 172//3 160//3
f 160//3 172//3 173//3 161//3
f 56//1 44//1 170//1 200//1
f 49//1 37//1 168//1 174//1
f 174//1 168//1 169//1 175//1
f 37//1 26//1 166//1 168//1
f 168//1 166//1 167//1 169//1
f 16//3 32//3 164//3 150//3
f 150//3 164//3 165//3 151//3
f 6//3 28//3 160//3 145//3
f 145//3 160//3 161//3 144//3
f 15//4 6//4 145//4 158//4
f 158//4 145//4 144//4 159//4
f 55//3 2//3 143//3 176//3
f 176//3 143//3 142//3 177//3
f 31//1 15//1 158//1 162//1
f 162//1 158//1 159//1 163//1
f 11//2 4//2 141//2 154//2
f 154//2 141//2 140//2 155//2
f 57//3 11//3 154//3 178//3
f 178//3 154//3 155//3 179//3
f 8//4 16//4 150//4 152//4
f 152//4 150//4 151//4 153//4
f 2//2 12//2 156//2 143//2
f 143//2 156//2 157//2 142//2
f 26//1 8//1 152//1 166//1
f 166//1 152//1 153//1 167//1
f 71//10 184//10 147//10 69//10
f 184//11 185//11 146//11 147//11
f 126//2 185//2 179//2 123//2
f 185//2 184//2 178//2 179//2
f 108//2 110//2 148//2 146//2
f 146//2 148//2 149//2 147//2
f 124//4 181//4 183//4 125//4
f 181//4 180//4 182//4 183//4
f 116//4 165//4 181//4 124//4
f 165//4 164//4 180//4 181//4
f 138//4 187//4 163//4 115//4
f 187//4 186//4 162//4 163//4
f 139//2 119//2 171//2 188//2
f 189//3 134//3 190//3 198//3
f 194//2 193//2 192//2 197//2
f 195//2 194//2 197//2 196//2
f 191//12 198//12 190//12 80//12
f 196//2 197//2 202//2 199//2
f 199//2 202//2 198//2 191//2
f 202//2 201//2 200//2 198//2
f 93//3 119//3 192//3 193//3
f 148//1 110//1 196//1 199//1
f 171//3 170//3 200//3 201//3
f 149//1 148//1 199//1 191//1
f 78//1 149//1 191//1 80//1
f 137//6 93//6 193//6 194//6
f 119//5 139//5 197//5 192//5
